<?xml version="1.0" encoding="utf-8" standalone="no"?>
<!DOCTYPE svg PUBLIC "-//W3C//DTD SVG 1.1//EN"
  "http://www.w3.org/Graphics/SVG/1.1/DTD/svg11.dtd">
<svg xmlns:xlink="http://www.w3.org/1999/xlink" width="864pt" height="864pt" viewBox="0 0 864 864" xmlns="http://www.w3.org/2000/svg" version="1.1">
 <metadata>
  <rdf:RDF xmlns:dc="http://purl.org/dc/elements/1.1/" xmlns:cc="http://creativecommons.org/ns#" xmlns:rdf="http://www.w3.org/1999/02/22-rdf-syntax-ns#">
   <cc:Work>
    <dc:type rdf:resource="http://purl.org/dc/dcmitype/StillImage"/>
    <dc:date>2024-11-20T17:31:23.564498</dc:date>
    <dc:format>image/svg+xml</dc:format>
    <dc:creator>
     <cc:Agent>
      <dc:title>Matplotlib v3.9.2, https://matplotlib.org/</dc:title>
     </cc:Agent>
    </dc:creator>
   </cc:Work>
  </rdf:RDF>
 </metadata>
 <defs>
  <style type="text/css">*{stroke-linejoin: round; stroke-linecap: butt}</style>
 </defs>
 <g id="figure_1">
  <g id="patch_1">
   <path d="M 0 864 
L 864 864 
L 864 0 
L 0 0 
z
" style="fill: #ffffff"/>
  </g>
  <g id="axes_1">
   <g id="patch_2">
    <path d="M 61.54 828.92 
L 838.89 828.92 
L 838.89 61.26 
L 61.54 61.26 
z
" style="fill: #e5e5e5"/>
   </g>
   <g id="matplotlib.axis_1">
    <g id="xtick_1">
     <g id="line2d_1">
      <path d="M 61.54 828.92 
L 61.54 61.26 
" clip-path="url(#pdf19961216)" style="fill: none; stroke: #ffffff; stroke-width: 0.8; stroke-linecap: square"/>
     </g>
     <g id="line2d_2">
      <defs>
       <path id="ma0b5355eab" d="M 0 0 
L 0 3.5 
" style="stroke: #555555; stroke-width: 0.8"/>
      </defs>
      <g>
       <use xlink:href="#ma0b5355eab" x="61.54" y="828.92" style="fill: #555555; stroke: #555555; stroke-width: 0.8"/>
      </g>
     </g>
     <g id="text_1">
      <!-- −2.0 -->
      <g style="fill: #555555" transform="translate(39.685469 849.597188) scale(0.18 -0.18)">
       <defs>
        <path id="DejaVuSans-2212" d="M 678 2272 
L 4684 2272 
L 4684 1741 
L 678 1741 
L 678 2272 
z
" transform="scale(0.015625)"/>
        <path id="DejaVuSans-32" d="M 1228 531 
L 3431 531 
L 3431 0 
L 469 0 
L 469 531 
Q 828 903 1448 1529 
Q 2069 2156 2228 2338 
Q 2531 2678 2651 2914 
Q 2772 3150 2772 3378 
Q 2772 3750 2511 3984 
Q 2250 4219 1831 4219 
Q 1534 4219 1204 4116 
Q 875 4013 500 3803 
L 500 4441 
Q 881 4594 1212 4672 
Q 1544 4750 1819 4750 
Q 2544 4750 2975 4387 
Q 3406 4025 3406 3419 
Q 3406 3131 3298 2873 
Q 3191 2616 2906 2266 
Q 2828 2175 2409 1742 
Q 1991 1309 1228 531 
z
" transform="scale(0.015625)"/>
        <path id="DejaVuSans-2e" d="M 684 794 
L 1344 794 
L 1344 0 
L 684 0 
L 684 794 
z
" transform="scale(0.015625)"/>
        <path id="DejaVuSans-30" d="M 2034 4250 
Q 1547 4250 1301 3770 
Q 1056 3291 1056 2328 
Q 1056 1369 1301 889 
Q 1547 409 2034 409 
Q 2525 409 2770 889 
Q 3016 1369 3016 2328 
Q 3016 3291 2770 3770 
Q 2525 4250 2034 4250 
z
M 2034 4750 
Q 2819 4750 3233 4129 
Q 3647 3509 3647 2328 
Q 3647 1150 3233 529 
Q 2819 -91 2034 -91 
Q 1250 -91 836 529 
Q 422 1150 422 2328 
Q 422 3509 836 4129 
Q 1250 4750 2034 4750 
z
" transform="scale(0.015625)"/>
       </defs>
       <use xlink:href="#DejaVuSans-2212"/>
       <use xlink:href="#DejaVuSans-32" x="83.789062"/>
       <use xlink:href="#DejaVuSans-2e" x="147.412109"/>
       <use xlink:href="#DejaVuSans-30" x="179.199219"/>
      </g>
     </g>
    </g>
    <g id="xtick_2">
     <g id="line2d_3">
      <path d="M 158.70875 828.92 
L 158.70875 61.26 
" clip-path="url(#pdf19961216)" style="fill: none; stroke: #ffffff; stroke-width: 0.8; stroke-linecap: square"/>
     </g>
     <g id="line2d_4">
      <g>
       <use xlink:href="#ma0b5355eab" x="158.70875" y="828.92" style="fill: #555555; stroke: #555555; stroke-width: 0.8"/>
      </g>
     </g>
     <g id="text_2">
      <!-- −1.5 -->
      <g style="fill: #555555" transform="translate(136.854219 849.597188) scale(0.18 -0.18)">
       <defs>
        <path id="DejaVuSans-31" d="M 794 531 
L 1825 531 
L 1825 4091 
L 703 3866 
L 703 4441 
L 1819 4666 
L 2450 4666 
L 2450 531 
L 3481 531 
L 3481 0 
L 794 0 
L 794 531 
z
" transform="scale(0.015625)"/>
        <path id="DejaVuSans-35" d="M 691 4666 
L 3169 4666 
L 3169 4134 
L 1269 4134 
L 1269 2991 
Q 1406 3038 1543 3061 
Q 1681 3084 1819 3084 
Q 2600 3084 3056 2656 
Q 3513 2228 3513 1497 
Q 3513 744 3044 326 
Q 2575 -91 1722 -91 
Q 1428 -91 1123 -41 
Q 819 9 494 109 
L 494 744 
Q 775 591 1075 516 
Q 1375 441 1709 441 
Q 2250 441 2565 725 
Q 2881 1009 2881 1497 
Q 2881 1984 2565 2268 
Q 2250 2553 1709 2553 
Q 1456 2553 1204 2497 
Q 953 2441 691 2322 
L 691 4666 
z
" transform="scale(0.015625)"/>
       </defs>
       <use xlink:href="#DejaVuSans-2212"/>
       <use xlink:href="#DejaVuSans-31" x="83.789062"/>
       <use xlink:href="#DejaVuSans-2e" x="147.412109"/>
       <use xlink:href="#DejaVuSans-35" x="179.199219"/>
      </g>
     </g>
    </g>
    <g id="xtick_3">
     <g id="line2d_5">
      <path d="M 255.8775 828.92 
L 255.8775 61.26 
" clip-path="url(#pdf19961216)" style="fill: none; stroke: #ffffff; stroke-width: 0.8; stroke-linecap: square"/>
     </g>
     <g id="line2d_6">
      <g>
       <use xlink:href="#ma0b5355eab" x="255.8775" y="828.92" style="fill: #555555; stroke: #555555; stroke-width: 0.8"/>
      </g>
     </g>
     <g id="text_3">
      <!-- −1.0 -->
      <g style="fill: #555555" transform="translate(234.022969 849.597188) scale(0.18 -0.18)">
       <use xlink:href="#DejaVuSans-2212"/>
       <use xlink:href="#DejaVuSans-31" x="83.789062"/>
       <use xlink:href="#DejaVuSans-2e" x="147.412109"/>
       <use xlink:href="#DejaVuSans-30" x="179.199219"/>
      </g>
     </g>
    </g>
    <g id="xtick_4">
     <g id="line2d_7">
      <path d="M 353.04625 828.92 
L 353.04625 61.26 
" clip-path="url(#pdf19961216)" style="fill: none; stroke: #ffffff; stroke-width: 0.8; stroke-linecap: square"/>
     </g>
     <g id="line2d_8">
      <g>
       <use xlink:href="#ma0b5355eab" x="353.04625" y="828.92" style="fill: #555555; stroke: #555555; stroke-width: 0.8"/>
      </g>
     </g>
     <g id="text_4">
      <!-- −0.5 -->
      <g style="fill: #555555" transform="translate(331.191719 849.597188) scale(0.18 -0.18)">
       <use xlink:href="#DejaVuSans-2212"/>
       <use xlink:href="#DejaVuSans-30" x="83.789062"/>
       <use xlink:href="#DejaVuSans-2e" x="147.412109"/>
       <use xlink:href="#DejaVuSans-35" x="179.199219"/>
      </g>
     </g>
    </g>
    <g id="xtick_5">
     <g id="line2d_9">
      <path d="M 450.215 828.92 
L 450.215 61.26 
" clip-path="url(#pdf19961216)" style="fill: none; stroke: #ffffff; stroke-width: 0.8; stroke-linecap: square"/>
     </g>
     <g id="line2d_10">
      <g>
       <use xlink:href="#ma0b5355eab" x="450.215" y="828.92" style="fill: #555555; stroke: #555555; stroke-width: 0.8"/>
      </g>
     </g>
     <g id="text_5">
      <!-- 0.0 -->
      <g style="fill: #555555" transform="translate(435.902188 849.597188) scale(0.18 -0.18)">
       <use xlink:href="#DejaVuSans-30"/>
       <use xlink:href="#DejaVuSans-2e" x="63.623047"/>
       <use xlink:href="#DejaVuSans-30" x="95.410156"/>
      </g>
     </g>
    </g>
    <g id="xtick_6">
     <g id="line2d_11">
      <path d="M 547.38375 828.92 
L 547.38375 61.26 
" clip-path="url(#pdf19961216)" style="fill: none; stroke: #ffffff; stroke-width: 0.8; stroke-linecap: square"/>
     </g>
     <g id="line2d_12">
      <g>
       <use xlink:href="#ma0b5355eab" x="547.38375" y="828.92" style="fill: #555555; stroke: #555555; stroke-width: 0.8"/>
      </g>
     </g>
     <g id="text_6">
      <!-- 0.5 -->
      <g style="fill: #555555" transform="translate(533.070938 849.597188) scale(0.18 -0.18)">
       <use xlink:href="#DejaVuSans-30"/>
       <use xlink:href="#DejaVuSans-2e" x="63.623047"/>
       <use xlink:href="#DejaVuSans-35" x="95.410156"/>
      </g>
     </g>
    </g>
    <g id="xtick_7">
     <g id="line2d_13">
      <path d="M 644.5525 828.92 
L 644.5525 61.26 
" clip-path="url(#pdf19961216)" style="fill: none; stroke: #ffffff; stroke-width: 0.8; stroke-linecap: square"/>
     </g>
     <g id="line2d_14">
      <g>
       <use xlink:href="#ma0b5355eab" x="644.5525" y="828.92" style="fill: #555555; stroke: #555555; stroke-width: 0.8"/>
      </g>
     </g>
     <g id="text_7">
      <!-- 1.0 -->
      <g style="fill: #555555" transform="translate(630.239688 849.597188) scale(0.18 -0.18)">
       <use xlink:href="#DejaVuSans-31"/>
       <use xlink:href="#DejaVuSans-2e" x="63.623047"/>
       <use xlink:href="#DejaVuSans-30" x="95.410156"/>
      </g>
     </g>
    </g>
    <g id="xtick_8">
     <g id="line2d_15">
      <path d="M 741.72125 828.92 
L 741.72125 61.26 
" clip-path="url(#pdf19961216)" style="fill: none; stroke: #ffffff; stroke-width: 0.8; stroke-linecap: square"/>
     </g>
     <g id="line2d_16">
      <g>
       <use xlink:href="#ma0b5355eab" x="741.72125" y="828.92" style="fill: #555555; stroke: #555555; stroke-width: 0.8"/>
      </g>
     </g>
     <g id="text_8">
      <!-- 1.5 -->
      <g style="fill: #555555" transform="translate(727.408438 849.597188) scale(0.18 -0.18)">
       <use xlink:href="#DejaVuSans-31"/>
       <use xlink:href="#DejaVuSans-2e" x="63.623047"/>
       <use xlink:href="#DejaVuSans-35" x="95.410156"/>
      </g>
     </g>
    </g>
    <g id="xtick_9">
     <g id="line2d_17">
      <path d="M 838.89 828.92 
L 838.89 61.26 
" clip-path="url(#pdf19961216)" style="fill: none; stroke: #ffffff; stroke-width: 0.8; stroke-linecap: square"/>
     </g>
     <g id="line2d_18">
      <g>
       <use xlink:href="#ma0b5355eab" x="838.89" y="828.92" style="fill: #555555; stroke: #555555; stroke-width: 0.8"/>
      </g>
     </g>
     <g id="text_9">
      <!-- 2.0 -->
      <g style="fill: #555555" transform="translate(824.577188 849.597188) scale(0.18 -0.18)">
       <use xlink:href="#DejaVuSans-32"/>
       <use xlink:href="#DejaVuSans-2e" x="63.623047"/>
       <use xlink:href="#DejaVuSans-30" x="95.410156"/>
      </g>
     </g>
    </g>
   </g>
   <g id="matplotlib.axis_2">
    <g id="ytick_1">
     <g id="line2d_19">
      <path d="M 61.54 828.92 
L 838.89 828.92 
" clip-path="url(#pdf19961216)" style="fill: none; stroke: #ffffff; stroke-width: 0.8; stroke-linecap: square"/>
     </g>
     <g id="line2d_20">
      <defs>
       <path id="m74e0362620" d="M 0 0 
L -3.5 0 
" style="stroke: #555555; stroke-width: 0.8"/>
      </defs>
      <g>
       <use xlink:href="#m74e0362620" x="61.54" y="828.92" style="fill: #555555; stroke: #555555; stroke-width: 0.8"/>
      </g>
     </g>
     <g id="text_10">
      <!-- −2.0 -->
      <g style="fill: #555555" transform="translate(10.830937 835.758594) scale(0.18 -0.18)">
       <use xlink:href="#DejaVuSans-2212"/>
       <use xlink:href="#DejaVuSans-32" x="83.789062"/>
       <use xlink:href="#DejaVuSans-2e" x="147.412109"/>
       <use xlink:href="#DejaVuSans-30" x="179.199219"/>
      </g>
     </g>
    </g>
    <g id="ytick_2">
     <g id="line2d_21">
      <path d="M 61.54 732.9625 
L 838.89 732.9625 
" clip-path="url(#pdf19961216)" style="fill: none; stroke: #ffffff; stroke-width: 0.8; stroke-linecap: square"/>
     </g>
     <g id="line2d_22">
      <g>
       <use xlink:href="#m74e0362620" x="61.54" y="732.9625" style="fill: #555555; stroke: #555555; stroke-width: 0.8"/>
      </g>
     </g>
     <g id="text_11">
      <!-- −1.5 -->
      <g style="fill: #555555" transform="translate(10.830937 739.801094) scale(0.18 -0.18)">
       <use xlink:href="#DejaVuSans-2212"/>
       <use xlink:href="#DejaVuSans-31" x="83.789062"/>
       <use xlink:href="#DejaVuSans-2e" x="147.412109"/>
       <use xlink:href="#DejaVuSans-35" x="179.199219"/>
      </g>
     </g>
    </g>
    <g id="ytick_3">
     <g id="line2d_23">
      <path d="M 61.54 637.005 
L 838.89 637.005 
" clip-path="url(#pdf19961216)" style="fill: none; stroke: #ffffff; stroke-width: 0.8; stroke-linecap: square"/>
     </g>
     <g id="line2d_24">
      <g>
       <use xlink:href="#m74e0362620" x="61.54" y="637.005" style="fill: #555555; stroke: #555555; stroke-width: 0.8"/>
      </g>
     </g>
     <g id="text_12">
      <!-- −1.0 -->
      <g style="fill: #555555" transform="translate(10.830937 643.843594) scale(0.18 -0.18)">
       <use xlink:href="#DejaVuSans-2212"/>
       <use xlink:href="#DejaVuSans-31" x="83.789062"/>
       <use xlink:href="#DejaVuSans-2e" x="147.412109"/>
       <use xlink:href="#DejaVuSans-30" x="179.199219"/>
      </g>
     </g>
    </g>
    <g id="ytick_4">
     <g id="line2d_25">
      <path d="M 61.54 541.0475 
L 838.89 541.0475 
" clip-path="url(#pdf19961216)" style="fill: none; stroke: #ffffff; stroke-width: 0.8; stroke-linecap: square"/>
     </g>
     <g id="line2d_26">
      <g>
       <use xlink:href="#m74e0362620" x="61.54" y="541.0475" style="fill: #555555; stroke: #555555; stroke-width: 0.8"/>
      </g>
     </g>
     <g id="text_13">
      <!-- −0.5 -->
      <g style="fill: #555555" transform="translate(10.830937 547.886094) scale(0.18 -0.18)">
       <use xlink:href="#DejaVuSans-2212"/>
       <use xlink:href="#DejaVuSans-30" x="83.789062"/>
       <use xlink:href="#DejaVuSans-2e" x="147.412109"/>
       <use xlink:href="#DejaVuSans-35" x="179.199219"/>
      </g>
     </g>
    </g>
    <g id="ytick_5">
     <g id="line2d_27">
      <path d="M 61.54 445.09 
L 838.89 445.09 
" clip-path="url(#pdf19961216)" style="fill: none; stroke: #ffffff; stroke-width: 0.8; stroke-linecap: square"/>
     </g>
     <g id="line2d_28">
      <g>
       <use xlink:href="#m74e0362620" x="61.54" y="445.09" style="fill: #555555; stroke: #555555; stroke-width: 0.8"/>
      </g>
     </g>
     <g id="text_14">
      <!-- 0.0 -->
      <g style="fill: #555555" transform="translate(25.914375 451.928594) scale(0.18 -0.18)">
       <use xlink:href="#DejaVuSans-30"/>
       <use xlink:href="#DejaVuSans-2e" x="63.623047"/>
       <use xlink:href="#DejaVuSans-30" x="95.410156"/>
      </g>
     </g>
    </g>
    <g id="ytick_6">
     <g id="line2d_29">
      <path d="M 61.54 349.1325 
L 838.89 349.1325 
" clip-path="url(#pdf19961216)" style="fill: none; stroke: #ffffff; stroke-width: 0.8; stroke-linecap: square"/>
     </g>
     <g id="line2d_30">
      <g>
       <use xlink:href="#m74e0362620" x="61.54" y="349.1325" style="fill: #555555; stroke: #555555; stroke-width: 0.8"/>
      </g>
     </g>
     <g id="text_15">
      <!-- 0.5 -->
      <g style="fill: #555555" transform="translate(25.914375 355.971094) scale(0.18 -0.18)">
       <use xlink:href="#DejaVuSans-30"/>
       <use xlink:href="#DejaVuSans-2e" x="63.623047"/>
       <use xlink:href="#DejaVuSans-35" x="95.410156"/>
      </g>
     </g>
    </g>
    <g id="ytick_7">
     <g id="line2d_31">
      <path d="M 61.54 253.175 
L 838.89 253.175 
" clip-path="url(#pdf19961216)" style="fill: none; stroke: #ffffff; stroke-width: 0.8; stroke-linecap: square"/>
     </g>
     <g id="line2d_32">
      <g>
       <use xlink:href="#m74e0362620" x="61.54" y="253.175" style="fill: #555555; stroke: #555555; stroke-width: 0.8"/>
      </g>
     </g>
     <g id="text_16">
      <!-- 1.0 -->
      <g style="fill: #555555" transform="translate(25.914375 260.013594) scale(0.18 -0.18)">
       <use xlink:href="#DejaVuSans-31"/>
       <use xlink:href="#DejaVuSans-2e" x="63.623047"/>
       <use xlink:href="#DejaVuSans-30" x="95.410156"/>
      </g>
     </g>
    </g>
    <g id="ytick_8">
     <g id="line2d_33">
      <path d="M 61.54 157.2175 
L 838.89 157.2175 
" clip-path="url(#pdf19961216)" style="fill: none; stroke: #ffffff; stroke-width: 0.8; stroke-linecap: square"/>
     </g>
     <g id="line2d_34">
      <g>
       <use xlink:href="#m74e0362620" x="61.54" y="157.2175" style="fill: #555555; stroke: #555555; stroke-width: 0.8"/>
      </g>
     </g>
     <g id="text_17">
      <!-- 1.5 -->
      <g style="fill: #555555" transform="translate(25.914375 164.056094) scale(0.18 -0.18)">
       <use xlink:href="#DejaVuSans-31"/>
       <use xlink:href="#DejaVuSans-2e" x="63.623047"/>
       <use xlink:href="#DejaVuSans-35" x="95.410156"/>
      </g>
     </g>
    </g>
    <g id="ytick_9">
     <g id="line2d_35">
      <path d="M 61.54 61.26 
L 838.89 61.26 
" clip-path="url(#pdf19961216)" style="fill: none; stroke: #ffffff; stroke-width: 0.8; stroke-linecap: square"/>
     </g>
     <g id="line2d_36">
      <g>
       <use xlink:href="#m74e0362620" x="61.54" y="61.26" style="fill: #555555; stroke: #555555; stroke-width: 0.8"/>
      </g>
     </g>
     <g id="text_18">
      <!-- 2.0 -->
      <g style="fill: #555555" transform="translate(25.914375 68.098594) scale(0.18 -0.18)">
       <use xlink:href="#DejaVuSans-32"/>
       <use xlink:href="#DejaVuSans-2e" x="63.623047"/>
       <use xlink:href="#DejaVuSans-30" x="95.410156"/>
      </g>
     </g>
    </g>
   </g>
   <g id="Quiver_1">
    <path d="M 447.791214 443.470478 
L 519.590022 336.015973 
L 513.122929 335.200714 
L 536.589506 315.821422 
L 527.665644 344.917846 
L 524.437594 339.255017 
L 452.638786 446.709522 
L 447.791214 443.470478 
" clip-path="url(#pdf19961216)" style="fill: #346eeb; fill-opacity: 0.75"/>
   </g>
   <g id="Quiver_2">
    <path d="M 448.595478 447.513786 
L 341.140965 375.714986 
L 340.325707 382.182079 
L 320.946413 358.715503 
L 350.042838 367.639363 
L 344.380009 370.867414 
L 451.834522 442.666214 
L 448.595478 447.513786 
" clip-path="url(#pdf19961216)" style="fill: #6834eb; fill-opacity: 0.75"/>
   </g>
   <g id="Quiver_3">
    <path d="M 447.806732 443.447492 
L 496.064114 372.69185 
L 489.605069 371.815102 
L 513.254957 352.659944 
L 504.054679 381.670152 
L 500.880651 375.976867 
L 452.623268 446.732508 
L 447.806732 443.447492 
" clip-path="url(#pdf19961216)" style="fill: #eb4034; fill-opacity: 0.75"/>
   </g>
   <g id="Quiver_4">
    <path d="M 447.505616 444.01444 
L 482.005185 357.108505 
L 475.510858 357.666768 
L 494.394611 333.799613 
L 491.767159 364.120129 
L 487.423952 359.259625 
L 452.924384 446.16556 
L 447.505616 444.01444 
" clip-path="url(#pdf19961216)" style="fill: #eb8c34; fill-opacity: 0.75"/>
   </g>
   <g id="patch_3">
    <path d="M 61.54 828.92 
L 61.54 61.26 
" style="fill: none; stroke: #ffffff; stroke-linejoin: miter; stroke-linecap: square"/>
   </g>
   <g id="patch_4">
    <path d="M 838.89 828.92 
L 838.89 61.26 
" style="fill: none; stroke: #ffffff; stroke-linejoin: miter; stroke-linecap: square"/>
   </g>
   <g id="patch_5">
    <path d="M 61.54 828.92 
L 838.89 828.92 
" style="fill: none; stroke: #ffffff; stroke-linejoin: miter; stroke-linecap: square"/>
   </g>
   <g id="patch_6">
    <path d="M 61.54 61.26 
L 838.89 61.26 
" style="fill: none; stroke: #ffffff; stroke-linejoin: miter; stroke-linecap: square"/>
   </g>
   <g id="text_19">
    <!-- $\text{softmax}\left(\frac{QK^{\top}}{\sqrt{d_k}}\right)$ and $V$ -->
    <g transform="translate(326.255 42.3) scale(0.24 -0.24)">
     <defs>
      <path id="DejaVuSans-73" d="M 2834 3397 
L 2834 2853 
Q 2591 2978 2328 3040 
Q 2066 3103 1784 3103 
Q 1356 3103 1142 2972 
Q 928 2841 928 2578 
Q 928 2378 1081 2264 
Q 1234 2150 1697 2047 
L 1894 2003 
Q 2506 1872 2764 1633 
Q 3022 1394 3022 966 
Q 3022 478 2636 193 
Q 2250 -91 1575 -91 
Q 1294 -91 989 -36 
Q 684 19 347 128 
L 347 722 
Q 666 556 975 473 
Q 1284 391 1588 391 
Q 1994 391 2212 530 
Q 2431 669 2431 922 
Q 2431 1156 2273 1281 
Q 2116 1406 1581 1522 
L 1381 1569 
Q 847 1681 609 1914 
Q 372 2147 372 2553 
Q 372 3047 722 3315 
Q 1072 3584 1716 3584 
Q 2034 3584 2315 3537 
Q 2597 3491 2834 3397 
z
" transform="scale(0.015625)"/>
      <path id="DejaVuSans-6f" d="M 1959 3097 
Q 1497 3097 1228 2736 
Q 959 2375 959 1747 
Q 959 1119 1226 758 
Q 1494 397 1959 397 
Q 2419 397 2687 759 
Q 2956 1122 2956 1747 
Q 2956 2369 2687 2733 
Q 2419 3097 1959 3097 
z
M 1959 3584 
Q 2709 3584 3137 3096 
Q 3566 2609 3566 1747 
Q 3566 888 3137 398 
Q 2709 -91 1959 -91 
Q 1206 -91 779 398 
Q 353 888 353 1747 
Q 353 2609 779 3096 
Q 1206 3584 1959 3584 
z
" transform="scale(0.015625)"/>
      <path id="DejaVuSans-66" d="M 2375 4863 
L 2375 4384 
L 1825 4384 
Q 1516 4384 1395 4259 
Q 1275 4134 1275 3809 
L 1275 3500 
L 2222 3500 
L 2222 3053 
L 1275 3053 
L 1275 0 
L 697 0 
L 697 3053 
L 147 3053 
L 147 3500 
L 697 3500 
L 697 3744 
Q 697 4328 969 4595 
Q 1241 4863 1831 4863 
L 2375 4863 
z
" transform="scale(0.015625)"/>
      <path id="DejaVuSans-74" d="M 1172 4494 
L 1172 3500 
L 2356 3500 
L 2356 3053 
L 1172 3053 
L 1172 1153 
Q 1172 725 1289 603 
Q 1406 481 1766 481 
L 2356 481 
L 2356 0 
L 1766 0 
Q 1100 0 847 248 
Q 594 497 594 1153 
L 594 3053 
L 172 3053 
L 172 3500 
L 594 3500 
L 594 4494 
L 1172 4494 
z
" transform="scale(0.015625)"/>
      <path id="DejaVuSans-6d" d="M 3328 2828 
Q 3544 3216 3844 3400 
Q 4144 3584 4550 3584 
Q 5097 3584 5394 3201 
Q 5691 2819 5691 2113 
L 5691 0 
L 5113 0 
L 5113 2094 
Q 5113 2597 4934 2840 
Q 4756 3084 4391 3084 
Q 3944 3084 3684 2787 
Q 3425 2491 3425 1978 
L 3425 0 
L 2847 0 
L 2847 2094 
Q 2847 2600 2669 2842 
Q 2491 3084 2119 3084 
Q 1678 3084 1418 2786 
Q 1159 2488 1159 1978 
L 1159 0 
L 581 0 
L 581 3500 
L 1159 3500 
L 1159 2956 
Q 1356 3278 1631 3431 
Q 1906 3584 2284 3584 
Q 2666 3584 2933 3390 
Q 3200 3197 3328 2828 
z
" transform="scale(0.015625)"/>
      <path id="DejaVuSans-61" d="M 2194 1759 
Q 1497 1759 1228 1600 
Q 959 1441 959 1056 
Q 959 750 1161 570 
Q 1363 391 1709 391 
Q 2188 391 2477 730 
Q 2766 1069 2766 1631 
L 2766 1759 
L 2194 1759 
z
M 3341 1997 
L 3341 0 
L 2766 0 
L 2766 531 
Q 2569 213 2275 61 
Q 1981 -91 1556 -91 
Q 1019 -91 701 211 
Q 384 513 384 1019 
Q 384 1609 779 1909 
Q 1175 2209 1959 2209 
L 2766 2209 
L 2766 2266 
Q 2766 2663 2505 2880 
Q 2244 3097 1772 3097 
Q 1472 3097 1187 3025 
Q 903 2953 641 2809 
L 641 3341 
Q 956 3463 1253 3523 
Q 1550 3584 1831 3584 
Q 2591 3584 2966 3190 
Q 3341 2797 3341 1997 
z
" transform="scale(0.015625)"/>
      <path id="DejaVuSans-78" d="M 3513 3500 
L 2247 1797 
L 3578 0 
L 2900 0 
L 1881 1375 
L 863 0 
L 184 0 
L 1544 1831 
L 300 3500 
L 978 3500 
L 1906 2253 
L 2834 3500 
L 3513 3500 
z
" transform="scale(0.015625)"/>
      <path id="STIXSizeTwoSym-Regular-28" d="M 3219 -1555 
L 3219 -1786 
Q 2144 -774 1517 730 
Q 890 2234 890 4115 
Q 890 6003 1533 7593 
Q 2176 9184 3219 10022 
L 3219 9811 
Q 2490 9062 1994 7606 
Q 1498 6150 1498 4115 
Q 1498 563 3219 -1555 
z
" transform="scale(0.015625)"/>
      <path id="DejaVuSans-Oblique-51" d="M 2309 -84 
Q 2275 -88 2237 -89 
Q 2200 -91 2125 -91 
Q 1250 -91 756 411 
Q 263 913 263 1797 
Q 263 2319 452 2844 
Q 641 3369 978 3788 
Q 1369 4269 1858 4509 
Q 2347 4750 2938 4750 
Q 3794 4750 4287 4245 
Q 4781 3741 4781 2869 
Q 4781 1928 4265 1147 
Q 3750 366 2919 44 
L 3553 -825 
L 2847 -825 
L 2309 -84 
z
M 2919 4238 
Q 2400 4238 2003 3986 
Q 1606 3734 1313 3219 
Q 1125 2891 1026 2522 
Q 928 2153 928 1778 
Q 928 1128 1239 775 
Q 1550 422 2119 422 
Q 2631 422 3032 676 
Q 3434 931 3719 1434 
Q 3909 1772 4009 2142 
Q 4109 2513 4109 2881 
Q 4109 3528 3796 3883 
Q 3484 4238 2919 4238 
z
" transform="scale(0.015625)"/>
      <path id="DejaVuSans-Oblique-4b" d="M 1081 4666 
L 1716 4666 
L 1331 2700 
L 3781 4666 
L 4622 4666 
L 1850 2438 
L 3878 0 
L 3109 0 
L 1247 2272 
L 806 0 
L 172 0 
L 1081 4666 
z
" transform="scale(0.015625)"/>
      <path id="DejaVuSans-22a4" d="M 5028 4481 
L 5028 4084 
L 2988 4084 
L 2988 0 
L 2588 0 
L 2588 4084 
L 547 4084 
L 547 4481 
L 5028 4481 
z
" transform="scale(0.015625)"/>
      <path id="STIXSizeOneSym-Regular-221a" d="M 6970 9933 
L 3373 -1888 
L 3104 -1888 
L 1626 2918 
Q 1555 3149 1465 3251 
Q 1376 3354 1229 3354 
Q 1011 3354 794 3181 
L 717 3309 
L 1766 4115 
L 1926 4115 
L 3379 -602 
L 3405 -602 
L 6605 9933 
L 6970 9933 
z
" transform="scale(0.015625)"/>
      <path id="DejaVuSans-Oblique-64" d="M 2675 525 
Q 2444 222 2128 65 
Q 1813 -91 1428 -91 
Q 903 -91 598 267 
Q 294 625 294 1247 
Q 294 1766 478 2236 
Q 663 2706 1013 3078 
Q 1244 3325 1534 3454 
Q 1825 3584 2144 3584 
Q 2481 3584 2739 3421 
Q 2997 3259 3138 2956 
L 3513 4863 
L 4091 4863 
L 3144 0 
L 2566 0 
L 2675 525 
z
M 891 1350 
Q 891 897 1095 644 
Q 1300 391 1663 391 
Q 1931 391 2161 520 
Q 2391 650 2566 903 
Q 2750 1166 2856 1509 
Q 2963 1853 2963 2188 
Q 2963 2622 2758 2865 
Q 2553 3109 2194 3109 
Q 1922 3109 1687 2981 
Q 1453 2853 1288 2613 
Q 1106 2353 998 2009 
Q 891 1666 891 1350 
z
" transform="scale(0.015625)"/>
      <path id="DejaVuSans-Oblique-6b" d="M 1172 4863 
L 1747 4863 
L 1197 2028 
L 3169 3500 
L 3916 3500 
L 1716 1825 
L 3322 0 
L 2625 0 
L 1131 1709 
L 800 0 
L 225 0 
L 1172 4863 
z
" transform="scale(0.015625)"/>
      <path id="STIXSizeTwoSym-Regular-29" d="M 730 9792 
L 730 10022 
Q 1805 9011 2432 7507 
Q 3059 6003 3059 4115 
Q 3059 2234 2416 643 
Q 1773 -947 730 -1786 
L 730 -1574 
Q 1459 -826 1955 633 
Q 2451 2093 2451 4115 
Q 2451 7674 730 9792 
z
" transform="scale(0.015625)"/>
      <path id="DejaVuSans-20" transform="scale(0.015625)"/>
      <path id="DejaVuSans-6e" d="M 3513 2113 
L 3513 0 
L 2938 0 
L 2938 2094 
Q 2938 2591 2744 2837 
Q 2550 3084 2163 3084 
Q 1697 3084 1428 2787 
Q 1159 2491 1159 1978 
L 1159 0 
L 581 0 
L 581 3500 
L 1159 3500 
L 1159 2956 
Q 1366 3272 1645 3428 
Q 1925 3584 2291 3584 
Q 2894 3584 3203 3211 
Q 3513 2838 3513 2113 
z
" transform="scale(0.015625)"/>
      <path id="DejaVuSans-64" d="M 2906 2969 
L 2906 4863 
L 3481 4863 
L 3481 0 
L 2906 0 
L 2906 525 
Q 2725 213 2448 61 
Q 2172 -91 1784 -91 
Q 1150 -91 751 415 
Q 353 922 353 1747 
Q 353 2572 751 3078 
Q 1150 3584 1784 3584 
Q 2172 3584 2448 3432 
Q 2725 3281 2906 2969 
z
M 947 1747 
Q 947 1113 1208 752 
Q 1469 391 1925 391 
Q 2381 391 2643 752 
Q 2906 1113 2906 1747 
Q 2906 2381 2643 2742 
Q 2381 3103 1925 3103 
Q 1469 3103 1208 2742 
Q 947 2381 947 1747 
z
" transform="scale(0.015625)"/>
      <path id="DejaVuSans-Oblique-56" d="M 1319 0 
L 500 4666 
L 1119 4666 
L 1797 653 
L 4063 4666 
L 4750 4666 
L 2053 0 
L 1319 0 
z
" transform="scale(0.015625)"/>
     </defs>
     <use xlink:href="#DejaVuSans-73" transform="translate(0 0.075156)"/>
     <use xlink:href="#DejaVuSans-6f" transform="translate(52.099609 0.075156)"/>
     <use xlink:href="#DejaVuSans-66" transform="translate(113.28125 0.075156)"/>
     <use xlink:href="#DejaVuSans-74" transform="translate(148.486328 0.075156)"/>
     <use xlink:href="#DejaVuSans-6d" transform="translate(187.695312 0.075156)"/>
     <use xlink:href="#DejaVuSans-61" transform="translate(285.107422 0.075156)"/>
     <use xlink:href="#DejaVuSans-78" transform="translate(346.386719 0.075156)"/>
     <use xlink:href="#STIXSizeTwoSym-Regular-28" transform="translate(405.566406 -49.079531) scale(1.041336)"/>
     <use xlink:href="#DejaVuSans-Oblique-51" transform="translate(466.896027 52.895469) scale(0.7)"/>
     <use xlink:href="#DejaVuSans-Oblique-4b" transform="translate(521.993683 52.895469) scale(0.7)"/>
     <use xlink:href="#DejaVuSans-22a4" transform="translate(582.355129 79.692344) scale(0.49)"/>
     <use xlink:href="#STIXSizeOneSym-Regular-221a" transform="translate(480.896027 -64.301406) scale(0.468581)"/>
     <use xlink:href="#DejaVuSans-Oblique-64" transform="translate(539.173088 -66.942031) scale(0.7)"/>
     <use xlink:href="#DejaVuSans-Oblique-6b" transform="translate(583.606682 -78.426406) scale(0.49)"/>
     <use xlink:href="#STIXSizeTwoSym-Regular-29" transform="translate(648.999172 -49.079531) scale(1.041336)"/>
     <use xlink:href="#DejaVuSans-20" transform="translate(712.307156 0.075156)"/>
     <use xlink:href="#DejaVuSans-61" transform="translate(744.094265 0.075156)"/>
     <use xlink:href="#DejaVuSans-6e" transform="translate(805.373562 0.075156)"/>
     <use xlink:href="#DejaVuSans-64" transform="translate(868.752468 0.075156)"/>
     <use xlink:href="#DejaVuSans-20" transform="translate(932.229031 0.075156)"/>
     <use xlink:href="#DejaVuSans-Oblique-56" transform="translate(964.01614 0.075156)"/>
     <path d="M 466.896027 18.872031 
L 466.896027 25.122031 
L 636.499172 25.122031 
L 636.499172 18.872031 
L 466.896027 18.872031 
z
"/>
     <path d="M 530.423088 3.872031 
L 530.423088 8.247031 
L 622.646721 8.247031 
L 622.646721 3.872031 
L 530.423088 3.872031 
z
"/>
    </g>
   </g>
   <g id="legend_1">
    <g id="patch_7">
     <path d="M 631.71 215.98125 
L 826.29 215.98125 
Q 829.89 215.98125 829.89 212.38125 
L 829.89 73.86 
Q 829.89 70.26 826.29 70.26 
L 631.71 70.26 
Q 628.11 70.26 628.11 73.86 
L 628.11 212.38125 
Q 628.11 215.98125 631.71 215.98125 
z
" style="fill: #e5e5e5; opacity: 0.8; stroke: #cccccc; stroke-width: 0.5; stroke-linejoin: miter"/>
    </g>
    <g id="patch_8">
     <path d="M 635.31 91.137188 
L 671.31 91.137188 
L 671.31 78.537188 
L 635.31 78.537188 
z
" style="fill: #346eeb; fill-opacity: 0.75"/>
    </g>
    <g id="text_20">
     <!-- $V^{(1)}$ -->
     <g transform="translate(685.71 91.137188) scale(0.18 -0.18)">
      <defs>
       <path id="DejaVuSans-28" d="M 1984 4856 
Q 1566 4138 1362 3434 
Q 1159 2731 1159 2009 
Q 1159 1288 1364 580 
Q 1569 -128 1984 -844 
L 1484 -844 
Q 1016 -109 783 600 
Q 550 1309 550 2009 
Q 550 2706 781 3412 
Q 1013 4119 1484 4856 
L 1984 4856 
z
" transform="scale(0.015625)"/>
       <path id="DejaVuSans-29" d="M 513 4856 
L 1013 4856 
Q 1481 4119 1714 3412 
Q 1947 2706 1947 2009 
Q 1947 1309 1714 600 
Q 1481 -109 1013 -844 
L 513 -844 
Q 928 -128 1133 580 
Q 1338 1288 1338 2009 
Q 1338 2731 1133 3434 
Q 928 4138 513 4856 
z
" transform="scale(0.015625)"/>
      </defs>
      <use xlink:href="#DejaVuSans-Oblique-56" transform="translate(0 0.60625)"/>
      <use xlink:href="#DejaVuSans-28" transform="translate(75.424974 38.8875) scale(0.7)"/>
      <use xlink:href="#DejaVuSans-31" transform="translate(102.734544 38.8875) scale(0.7)"/>
      <use xlink:href="#DejaVuSans-29" transform="translate(147.270677 38.8875) scale(0.7)"/>
     </g>
    </g>
    <g id="patch_9">
     <path d="M 635.31 117.557813 
L 671.31 117.557813 
L 671.31 104.957813 
L 635.31 104.957813 
z
" style="fill: #6834eb; fill-opacity: 0.75"/>
    </g>
    <g id="text_21">
     <!-- $V^{(2)}$ -->
     <g transform="translate(685.71 117.557813) scale(0.18 -0.18)">
      <use xlink:href="#DejaVuSans-Oblique-56" transform="translate(0 0.60625)"/>
      <use xlink:href="#DejaVuSans-28" transform="translate(75.424974 38.8875) scale(0.7)"/>
      <use xlink:href="#DejaVuSans-32" transform="translate(102.734544 38.8875) scale(0.7)"/>
      <use xlink:href="#DejaVuSans-29" transform="translate(147.270677 38.8875) scale(0.7)"/>
     </g>
    </g>
    <g id="patch_10">
     <path d="M 635.31 150.82125 
L 671.31 150.82125 
L 671.31 138.22125 
L 635.31 138.22125 
z
" style="fill: #eb4034; fill-opacity: 0.75"/>
    </g>
    <g id="text_22">
     <!-- $\text{softmax}\left(\frac{QK^{\top}}{\sqrt{d_k}}\right)_1$ -->
     <g transform="translate(685.71 150.82125) scale(0.18 -0.18)">
      <use xlink:href="#DejaVuSans-73" transform="translate(0 0.075156)"/>
      <use xlink:href="#DejaVuSans-6f" transform="translate(52.099609 0.075156)"/>
      <use xlink:href="#DejaVuSans-66" transform="translate(113.28125 0.075156)"/>
      <use xlink:href="#DejaVuSans-74" transform="translate(148.486328 0.075156)"/>
      <use xlink:href="#DejaVuSans-6d" transform="translate(187.695312 0.075156)"/>
      <use xlink:href="#DejaVuSans-61" transform="translate(285.107422 0.075156)"/>
      <use xlink:href="#DejaVuSans-78" transform="translate(346.386719 0.075156)"/>
      <use xlink:href="#STIXSizeTwoSym-Regular-28" transform="translate(405.566406 -49.079531) scale(1.041336)"/>
      <use xlink:href="#DejaVuSans-Oblique-51" transform="translate(466.896027 52.895469) scale(0.7)"/>
      <use xlink:href="#DejaVuSans-Oblique-4b" transform="translate(521.993683 52.895469) scale(0.7)"/>
      <use xlink:href="#DejaVuSans-22a4" transform="translate(582.355129 79.692344) scale(0.49)"/>
      <use xlink:href="#STIXSizeOneSym-Regular-221a" transform="translate(480.896027 -64.301406) scale(0.468581)"/>
      <use xlink:href="#DejaVuSans-Oblique-64" transform="translate(539.173088 -66.942031) scale(0.7)"/>
      <use xlink:href="#DejaVuSans-Oblique-6b" transform="translate(583.606682 -78.426406) scale(0.49)"/>
      <use xlink:href="#STIXSizeTwoSym-Regular-29" transform="translate(648.999172 -49.079531) scale(1.041336)"/>
      <use xlink:href="#DejaVuSans-31" transform="translate(713.264187 -16.331094) scale(0.7)"/>
      <path d="M 466.896027 18.872031 
L 466.896027 25.122031 
L 636.499172 25.122031 
L 636.499172 18.872031 
L 466.896027 18.872031 
z
"/>
      <path d="M 530.423088 3.872031 
L 530.423088 8.247031 
L 622.646721 8.247031 
L 622.646721 3.872031 
L 530.423088 3.872031 
z
"/>
     </g>
    </g>
    <g id="patch_11">
     <path d="M 635.31 194.56125 
L 671.31 194.56125 
L 671.31 181.96125 
L 635.31 181.96125 
z
" style="fill: #eb8c34; fill-opacity: 0.75"/>
    </g>
    <g id="text_23">
     <!-- $\text{softmax}\left(\frac{QK^{\top}}{\sqrt{d_k}}\right)_2$ -->
     <g transform="translate(685.71 194.56125) scale(0.18 -0.18)">
      <use xlink:href="#DejaVuSans-73" transform="translate(0 0.075156)"/>
      <use xlink:href="#DejaVuSans-6f" transform="translate(52.099609 0.075156)"/>
      <use xlink:href="#DejaVuSans-66" transform="translate(113.28125 0.075156)"/>
      <use xlink:href="#DejaVuSans-74" transform="translate(148.486328 0.075156)"/>
      <use xlink:href="#DejaVuSans-6d" transform="translate(187.695312 0.075156)"/>
      <use xlink:href="#DejaVuSans-61" transform="translate(285.107422 0.075156)"/>
      <use xlink:href="#DejaVuSans-78" transform="translate(346.386719 0.075156)"/>
      <use xlink:href="#STIXSizeTwoSym-Regular-28" transform="translate(405.566406 -49.079531) scale(1.041336)"/>
      <use xlink:href="#DejaVuSans-Oblique-51" transform="translate(466.896027 52.895469) scale(0.7)"/>
      <use xlink:href="#DejaVuSans-Oblique-4b" transform="translate(521.993683 52.895469) scale(0.7)"/>
      <use xlink:href="#DejaVuSans-22a4" transform="translate(582.355129 79.692344) scale(0.49)"/>
      <use xlink:href="#STIXSizeOneSym-Regular-221a" transform="translate(480.896027 -64.301406) scale(0.468581)"/>
      <use xlink:href="#DejaVuSans-Oblique-64" transform="translate(539.173088 -66.942031) scale(0.7)"/>
      <use xlink:href="#DejaVuSans-Oblique-6b" transform="translate(583.606682 -78.426406) scale(0.49)"/>
      <use xlink:href="#STIXSizeTwoSym-Regular-29" transform="translate(648.999172 -49.079531) scale(1.041336)"/>
      <use xlink:href="#DejaVuSans-32" transform="translate(713.264187 -16.331094) scale(0.7)"/>
      <path d="M 466.896027 18.872031 
L 466.896027 25.122031 
L 636.499172 25.122031 
L 636.499172 18.872031 
L 466.896027 18.872031 
z
"/>
      <path d="M 530.423088 3.872031 
L 530.423088 8.247031 
L 622.646721 8.247031 
L 622.646721 3.872031 
L 530.423088 3.872031 
z
"/>
     </g>
    </g>
   </g>
  </g>
 </g>
 <defs>
  <clipPath id="pdf19961216">
   <rect x="61.54" y="61.26" width="777.35" height="767.66"/>
  </clipPath>
 </defs>
</svg>
